<svg xmlns="http://www.w3.org/2000/svg" viewBox="0 0 100 100">
  <circle cx="50" cy="50" r="48" fill="#009EDB"/>
  <g fill="none" stroke="#fff" stroke-width="2.5">
    <path d="M50 8 L50 92 M8 50 L92 50"/>
    <ellipse cx="50" cy="50" rx="38" ry="19"/>
    <path d="M12 30 Q50 25 88 30 Q92 50 88 70 Q50 75 12 70 Q8 50 12 30"/>
    <path d="M12 70 Q50 75 88 70 Q92 50 88 30 Q50 25 12 30 Q8 50 12 70"/>
  </g>
  <path d="M22 22 Q50 18 78 22 L74 50 Q50 54 26 50 Z" fill="none" stroke="#fff" stroke-width="2"/>
  <path d="M22 78 Q50 82 78 78 L74 50 Q50 46 26 50 Z" fill="none" stroke="#fff" stroke-width="2"/>
</svg>
